<?xml version="1.0" encoding="UTF-8"?>
<svg id="_레이어_2" data-name="레이어 2" xmlns="http://www.w3.org/2000/svg" viewBox="0 0 2111.65 1794.33">
  <g id="_레이어_1-2" data-name="레이어 1">
    <g>
      <path d="m1555.03.45c-2.46,2.14-4.77,4.5-7.42,6.4-81.75,58.66-163.81,116.89-245.2,176.04-53.36,38.78-105.41,79.36-158.67,118.29-192.04,140.4-384.46,280.28-576.41,420.8-24.96,18.27-48.04,39.13-71.96,58.82-.74.61-1.15,1.6-2,2.82,4.76,9.3,9.58,18.73,14.88,29.11,5.78-6.18,12.17-4.74,18.27-2.15,8.06,3.42,14.56,2.15,20.46-4.43,2.82-3.15,6.57-5.47,9.91-8.17,6.29,6.3,12.08,12.09,18.7,18.71-25.82,21.37-51.36,42.51-77.51,64.15-6.07-6.57-11.64-12.62-17.85-19.34,6.2-5.35,11.89-10.27,17.99-15.53-1.71-4.84-3.32-9.4-5.44-15.39-5.59,4.57-10.09,8.24-14.7,12.01.83,3.35,1.53,6.19,2.38,9.6-5.2,5.38-10.64,10.74-15.76,16.38-2.87,3.16-5.85,2.37-9.08,1.21-14.41-5.18-28.93-10.12-40.3-21.15-2.1-2.04-4.8-3.46-7.56-5.41-2.57,2-4.86,3.78-7.5,5.83,5.36,7.07,8,14.05,4.89,22.62-2.15,5.94-5.23,10.09-11.67,10.64-4.67.39-7.45,3.28-10.98,5.83-7.47,5.38-15.58,10.27-24.1,13.69-8.7,3.49-15.25,1.16-29.35-6.92-.46,13.21-1.6,26.07-1.12,38.86.34,9.03-2.89,14.81-10.9,17.78-6.62,2.45-7.39,6.94-7.48,13.24-.35,26.31-.88,52.63-2.16,78.9-1.12,23.13-6.96,45.47-15.42,66.89-6.54,16.59-10.09,33.71-12.95,51.12-9.43,57.49-18.72,115.01-28.56,172.43-1.67,9.74-5.24,19.29-8.94,28.53-7.9,19.73-10.81,40.31-12.67,61.29-3.74,42.14-8.06,84.22-12.15,126.32-1.32,13.57-3.17,27.1-3.9,40.7-.83,15.39,6.25,26.85,19.64,34.45,11.4,6.47,23.46,10.83,36.49,12.86,9.52,1.48,19.03,3.41,28.28,6.06,15.07,4.32,17.51,10.72,10.13,24.25-1.43,2.63-3.21,5.07-4.58,7.73-8.8,17.14-23.7,21.65-41.25,18.92-13.11-2.04-25.99-5.56-38.97-8.47-3.75-.84-7.46-1.81-12.71-3.09,1.41,2.77,1.78,4.06,2.59,4.95,1.79,1.97,3.88,3.65,5.71,5.59,19.03,20.19,41.59,34.86,67.47,44.98,6.47,2.53,11.75,8.41,17.08,13.31,1.46,1.34,1.15,4.66,1.49,7.09.08.56-.5,1.21-.74,1.83-9.95,25.36-2.3,19.56-28.6,25.13-14.64,3.1-29.55,4.91-44.33,7.35-10.22,1.68-19.78-1.91-29.55-3.7-16.35-2.99-32.78-5.58-47.06-15.34-2.86-1.95-7.51-1.84-11.31-1.74-11.96.31-23.9,1.24-35.86,1.55-3.23.08-6.54-1.02-9.73-1.89-4.78-1.31-7.09-4.41-6.79-9.58.32-5.65.42-11.33.29-16.99-.57-25.64-.43-51.34-2.08-76.92-3.45-53.63-2.8-107.21-.07-160.81.93-18.3,1.7-36.61,3-54.88.38-5.35-.2-9.6-4.17-13.57-6.12-6.12-8.33-14.09-5.86-22.14,3.78-12.32,4.5-24.84,4.59-37.48.03-4.49,1.69-6.77,6.87-6.58,1.15-18.71,2.4-36.93,3.36-55.16,2.16-40.93,4.51-81.85,6.15-122.8,1.72-42.98-3.59-84.81-18.87-125.55-7.66-20.41-11.8-42.29-15.99-63.81-3.41-17.51-1.31-35.16,5.82-53.31-24.66-6.04-48.66-11.91-73.26-17.93.47-3.41.64-6.33,1.3-9.14,8.47-36.29,16.32-72.75,25.8-108.78,4.73-18,10.87-35.61,13.34-54.16,2.85-21.46,5.41-42.95,8.48-64.37,9.49-66.23,31.43-127.81,69.55-183.16,4.87-7.08,10.91-13.36,17.85-21.76-7.49,2.43-10.8,7.83-17.52,10.92.95-8.59,1.63-15.93,2.6-23.23,1.53-11.55,3.56-23.05,4.72-34.64.41-4.1-.59-8.55-1.82-12.57-5.16-16.86-10.86-33.55-15.94-50.43-2-6.66-3.07-13.62-4.28-20.49-2.57-14.6,1.62-27.05,12.63-36.99,17.86-16.13,37.83-28.61,62.05-32.17,25.22-3.71,48.19,3.74,69.34,17.02,6.48,4.06,13.04,5.94,20.51,6.56,12.93,1.07,25.91,2.23,38.65,4.53,19.59,3.53,23.48,12.45,12.69,29.38-8.04,12.6-17.3,24.42-26.78,37.67,2.46,3.43,5.49,7.66,8.52,11.89,1.74,2.44,3.64,4.78,5.16,7.35,4.77,8.08,4.03,11.06-3.85,16.44-1.34.91-2.75,1.72-4.77,2.98,1.16,1.58,2.07,2.82,2.98,4.05,5.03,6.81,5.13,14.14-.29,20.18-3.97,4.43-4.11,8.66-3.41,13.72.58,4.26.91,8.55,1.39,13.28-15.87,6.5-31.43,12.88-47.21,19.35,0,5.99.49,11-.17,15.86-.46,3.42-1.52,8.03-3.96,9.69-7.73,5.27-10.43,13.52-14.93,21.19,5.53,6.22,6.01,13.78,6.31,21.53.29,7.65.93,15.32,2.06,22.88.52,3.47,2.28,6.88,4,10.03,15.46,28.36,31.3,56.51,46.49,85.01,15.16,28.43,25.2,58.65,29.74,90.63.28,1.96.98,3.86,1.68,6.53,9.72,1.21,19.55,2.82,29.44,3.58,24.98,1.94,49.59,6.04,73.69,12.75,6.66,1.85,11.21.17,16.28-3.83,24.58-19.42,49.1-38.92,74.16-57.69,30.92-23.17,62.19-45.88,93.61-68.38,222.09-159.1,443.96-318.51,666.53-476.94,89.83-63.94,181.2-125.71,271.9-188.43,1.86-1.29,4.07-2.07,6.11-3.08,0,0,.41.45.41.45ZM455.31,809.69c4.41,3.91,7.67,6.79,10.92,9.67.58-.33,1.17-.65,1.75-.98-.39-5.12-.78-10.23-1.27-16.59-4.33,3-7.24,5.01-11.4,7.89Z"/>
      <path d="m1833.2,707.21c1.91,7.18,3.46,13.02,5.01,18.87,3.95-9.66-4.88-17.17-2.72-27.25,4.78,0,9.84-.96,14.35.21,8,2.09,15.92,4.92,23.42,8.42,22.01,10.27,43.84,20.94,65.67,31.59,20.3,9.9,37.13,24.61,53.76,39.51,14.14,12.67,27.59,26.16,42.31,38.1,8.67,7.04,19.18,11.83,28.93,17.51,10.35,6.02,21.03,11.5,31.08,17.97,5.45,3.51,9.89,8.6,14.04,12.3-4.02,10.7-7.81,19.84-10.81,29.24-1.01,3.16-.88,7.26.22,10.41,9.67,27.72,13.2,56.53,13.19,85.52-.01,27.85-9.08,53.59-24.65,76.9-1.95,2.92-3.11,6.48-4.12,9.9-2.51,8.55-5.06,17.02-11.05,24.04-6.15-2.65-3.75-8.44-6.02-12.78-11,7.59-21.85,14.67-29.85,25.91-18.38,25.82-41.01,47.23-69.5,61.85-4,2.05-8.19,3.75-13.93,6.35.95-3.38,1.22-4.9,1.79-6.29,11.85-29.27,13.01-59.64,8.06-90.26-1.55-9.6-6.38-18.72-10.04-27.93-4.42-11.11-9.53-21.96-13.67-33.17-2.66-7.2.2-10.03,7.8-8.17,4.81,1.17,9.56,2.96,14.01,5.13,11.66,5.69,23.24,11.58,34.69,17.68,9.52,5.08,19.47,8.59,30.21,9.66,7.47.75,8.87-.03,9.79-7.58.55-4.5.64-9.58-.92-13.71-5.85-15.56-17.52-26.93-29.45-40.45-4.49,15.96-2.04,31.96-13.45,45.15-2.49-3.37-5.02-5.89-6.48-8.93-4.95-10.3-8.03-21.14-8.01-32.7,0-4.33-.3-8.69.1-12.99,1.79-19.32-5.31-35.01-18.68-48.58-13.56-13.76-26.92-27.73-39.88-42.04-9.36-10.34-17.94-21.38-27.58-32.96-10.33,10.13-21.06,19.89-33.84,26.6-4.5-3.19-3.65-7.12-3.05-11.09,2.32-15.4,9.04-29.22,16.01-42.81,2.84-5.53,2.84-9.38-.51-14.47-12.97-19.76-25.63-39.76-33.56-62.23-3.09-8.76-5.9-17.65-8.29-26.63-1.49-5.62-.61-11.06,5.63-15.8Z"/>
      <path d="m1561.5,5.51c89.68,70.22,172.35,149.83,244.62,237.96,35.84,44.29,69.5,90.81,95.76,141.53,16.09,31.82,33.5,72.87,31.37,109.05-1.02,14.7-7.92,28.75-19.97,37.49-11.67,8.64-25.89,12.97-39.82,16.09-18.21,4.05-37.06,9.37-51.57,21.52-23.63,19.33-19.38,52.44-11.76,78.66,5.25,18.23,12.47,35.85,20.13,53.19-8.05-17.19-15.52-34.71-21.06-52.92-8.27-26.93-12.71-60.14,11.42-80.41,14.74-12.57,33.82-18.17,52.3-22.45,13.67-3.21,27.44-7.35,38.77-15.79,11.39-8.32,17.88-21.67,18.78-35.62,1.79-36.36-15.23-75.38-31.22-107.46-44.03-84.12-105.7-157.65-170.29-226.7-52.28-55.04-108.23-106.63-167.46-154.13h0Z"/>
    </g>
  </g>
</svg>